<?xml version="1.0" encoding="utf-8"?>
<!-- Generator: Adobe Illustrator 28.0.0, SVG Export Plug-In . SVG Version: 6.00 Build 0)  -->
<svg version="1.1" xmlns="http://www.w3.org/2000/svg" xmlns:xlink="http://www.w3.org/1999/xlink" x="0px" y="0px"
	 viewBox="0 0 101 101" style="enable-background:new 0 0 101 101;" xml:space="preserve">
<style type="text/css">
	.st0{fill:none;stroke:#000000;stroke-width:8.3153;}
</style>
<g id="Layer_1">
	<path class="st0" d="M15.7,54.5L50,91.4c0.4,0.4,1.1,0.4,1.5,0l34.3-36.9c8.8-9.5,8.8-24.8,0-34.2c-8.8-9.5-23-9.5-31.8,0l-2.4,2.6
		c-0.4,0.4-1.1,0.4-1.5,0l-2.4-2.6c-8.8-9.5-23-9.5-31.8,0C6.9,29.7,6.9,45.1,15.7,54.5z"/>
</g>
<g id="Layer_2">
	<path d="M15.7,54.5L50,91.4c0.4,0.4,1.1,0.4,1.5,0l34.3-36.9c8.8-9.5,8.8-24.8,0-34.2c-8.8-9.5-23-9.5-31.8,0l-2.4,2.6
		c-0.4,0.4-1.1,0.4-1.5,0l-2.4-2.6c-8.8-9.5-23-9.5-31.8,0C6.9,29.7,6.9,45.1,15.7,54.5z"/>
</g>
</svg>
