<?xml version="1.0" encoding="utf-8"?>
<!-- Generator: Adobe Illustrator 28.0.0, SVG Export Plug-In . SVG Version: 6.00 Build 0)  -->
<svg version="1.1" id="Layer_1" xmlns="http://www.w3.org/2000/svg" xmlns:xlink="http://www.w3.org/1999/xlink" x="0px" y="0px"
	 viewBox="0 0 101 101" style="enable-background:new 0 0 101 101;" xml:space="preserve">
<style type="text/css">
	.st0{fill-rule:evenodd;clip-rule:evenodd;}
</style>
<path class="st0" d="M21.2,46c0-13.6,11-24.6,24.6-24.6s24.6,11,24.6,24.6s-11,24.5-24.6,24.5S21.2,59.5,21.2,46z M46.1,8.8
	C25.5,8.8,8.7,25.5,8.7,46.2s16.8,37.4,37.4,37.4c9.9,0,18.9-3.9,25.6-10.2c0.1,0.2,0.3,0.4,0.5,0.6l16.6,16.6
	c1.6,1.6,4.3,1.6,5.9,0s1.6-4.3,0-5.9L78.2,68.2c-0.4-0.4-0.8-0.6-1.2-0.8c4.1-6,6.6-13.3,6.6-21.2C83.6,25.5,66.8,8.8,46.1,8.8z"/>
</svg>
