<?xml version="1.0" encoding="utf-8"?>
<!-- Generator: Adobe Illustrator 28.0.0, SVG Export Plug-In . SVG Version: 6.00 Build 0)  -->
<svg version="1.1" id="Layer_1" xmlns="http://www.w3.org/2000/svg" xmlns:xlink="http://www.w3.org/1999/xlink" x="0px" y="0px"
	 viewBox="0 0 100 100" style="enable-background:new 0 0 100 100;" xml:space="preserve">
<path d="M13.1,44.7l2.8,3.1l0,0L13.1,44.7z M86.7,44.7l-2.8,3.1l0,0L86.7,44.7z M51.3,13l-2.8,3.1l0,0L51.3,13z M48.5,13l-2.8-3.1
	l0,0L48.5,13z M41.6,87.4h-4.2v4.2h4.2V87.4z M58.2,87.4v4.2h4.2v-4.2H58.2z M16.6,46.3c0,0.6-0.3,1.2-0.7,1.5l-5.6-6.2
	c-1.3,1.2-2.1,2.9-2.1,4.6H16.6z M37.4,85.3v-39H8.3v39H37.4z M14.5,83.2c1.1,0,2.1,0.9,2.1,2.1H8.3c0,3.4,2.8,6.2,6.2,6.2V83.2z
	 M85.3,83.2H14.5v8.3h70.8V83.2z M83.2,85.3c0-1.1,0.9-2.1,2.1-2.1v8.3c3.4,0,6.2-2.8,6.2-6.2H83.2z M62,46.3v39h29.6v-39H62z
	 M83.9,47.8c-0.4-0.4-0.7-1-0.7-1.5h8.3c0-1.8-0.8-3.5-2.1-4.6L83.9,47.8z M27.2,37.4l36,32.4l26.8-27.4l-36-32.4L27.2,37.4z
	 M51.3,16.1c-0.8,0.7-2,0.7-2.8,0l5.6-6.2c-2.4-2.1-6-2.1-8.3,0L51.3,16.1z M36.6,69.8l36-32.4L45.7,9.9l-36,32.4L36.6,69.8z
	 M45.7,66.5c0-2.3,1.9-4.2,4.2-4.2v-8.3c-6.9,0-12.5,5.6-12.5,12.5H45.7z M45.7,87.4V66.5h-8.3v20.8H45.7z M58.2,83.2H41.6v8.3h16.7
	V83.2z M54.1,66.5v20.8h8.3V66.5H54.1z M49.9,62.4c2.3,0,4.2,1.9,4.2,4.2h8.3c0-6.9-5.6-12.5-12.5-12.5V62.4z"/>
</svg>
