<?xml version="1.0" encoding="utf-8"?>
<!-- Generator: Adobe Illustrator 28.0.0, SVG Export Plug-In . SVG Version: 6.00 Build 0)  -->
<svg version="1.1" xmlns="http://www.w3.org/2000/svg" xmlns:xlink="http://www.w3.org/1999/xlink" x="0px" y="0px"
	 viewBox="0 0 101 101" style="enable-background:new 0 0 101 101;" xml:space="preserve">
<style type="text/css">
	.st0{fill-rule:evenodd;clip-rule:evenodd;}
	.st1{fill-rule:evenodd;clip-rule:evenodd;fill:#FFFFFF;}
</style>
<g id="Layer_1">
	<path class="st0" d="M33.7,9C19.9,9,8.7,20.2,8.7,34v33.3c0,13.8,11.2,24.9,24.9,24.9h33.3c13.8,0,24.9-11.2,24.9-24.9V34
		C91.9,20.2,80.7,9,66.9,9H33.7z"/>
</g>
<g id="Layer_2">
	<path class="st1" d="M54.5,34c0-2.3-1.9-4.2-4.2-4.2s-4.2,1.9-4.2,4.2v12.5H33.7c-2.3,0-4.2,1.9-4.2,4.2s1.9,4.2,4.2,4.2h12.5v12.5
		c0,2.3,1.9,4.2,4.2,4.2s4.2-1.9,4.2-4.2V54.8h12.5c2.3,0,4.2-1.9,4.2-4.2s-1.9-4.2-4.2-4.2H54.5V34z"/>
</g>
</svg>
