<?xml version="1.0" encoding="utf-8"?>
<!-- Generator: Adobe Illustrator 28.0.0, SVG Export Plug-In . SVG Version: 6.00 Build 0)  -->
<svg version="1.1" id="Layer_1" xmlns="http://www.w3.org/2000/svg" xmlns:xlink="http://www.w3.org/1999/xlink" x="0px" y="0px"
	 viewBox="0 0 101 100" style="enable-background:new 0 0 101 100;" xml:space="preserve">
<style type="text/css">
	.st0{fill-rule:evenodd;clip-rule:evenodd;}
</style>
<path class="st0" d="M70.8,81.2c-0.9-3.6-4.2-6.3-8.1-6.3H37.8c-3.9,0-7.2,2.7-8.1,6.3c5.9,3.9,13,6.1,20.5,6.1S64.9,85.1,70.8,81.2
	z M4.6,49.9C4.6,24.6,25,4.2,50.3,4.2S96,24.6,96,49.9S75.6,95.6,50.3,95.6S4.6,75.2,4.6,49.9z M50.3,29.1
	c-6.9,0-12.5,5.6-12.5,12.5c0,6.9,5.6,12.5,12.5,12.5c6.9,0,12.5-5.6,12.5-12.5C62.8,34.7,57.2,29.1,50.3,29.1z"/>
</svg>
